<?xml version="1.0" standalone="no"?>
<!DOCTYPE svg PUBLIC "-//W3C//DTD SVG 20010904//EN"
 "http://www.w3.org/TR/2001/REC-SVG-20010904/DTD/svg10.dtd">
<svg version="1.0" xmlns="http://www.w3.org/2000/svg"
 width="400.000000pt" height="400.000000pt" viewBox="0 0 400.000000 400.000000"
 preserveAspectRatio="xMidYMid meet">
<metadata>
Created by potrace 1.14, written by Peter Selinger 2001-2017
</metadata>
<g transform="translate(0.000000,400.000000) scale(0.100000,-0.100000)"
fill="#000000" stroke="none">
<path d="M2268 3878 l-3 -123 -85 -85 c-89 -89 -165 -201 -194 -286 -9 -26
-16 -79 -16 -118 0 -39 -7 -91 -16 -116 -17 -50 -13 -127 12 -186 11 -27 12
-35 2 -38 -7 -2 -62 -13 -123 -25 -92 -17 -114 -25 -133 -48 -15 -17 -22 -34
-19 -50 4 -23 3 -23 -82 -22 -65 0 -80 3 -62 10 22 9 23 13 17 61 -4 29 -9 54
-11 57 -24 24 -938 26 -997 2 -38 -14 -37 -46 2 -63 17 -7 30 -15 30 -18 0 -3
-14 -13 -31 -22 -27 -16 -62 -18 -295 -18 l-264 0 0 -1395 0 -1395 2000 0
2000 0 0 1360 0 1360 -57 1 c-92 1 -247 10 -252 15 -2 2 66 4 152 4 120 0 157
3 157 13 0 13 -14 14 -429 16 -218 1 -233 2 -225 19 4 9 9 42 9 72 1 30 10 75
20 99 l18 44 271 -7 c149 -4 286 -9 304 -12 l32 -5 0 510 0 511 -336 0 -336 0
14 -22 c9 -13 27 -25 41 -28 20 -4 24 -9 17 -19 -6 -11 -1 -21 17 -37 20 -17
25 -29 21 -52 -2 -17 -1 -29 4 -26 4 3 8 0 8 -6 0 -7 6 -10 13 -7 13 5 15 0
19 -43 1 -11 6 -20 11 -20 5 0 7 -7 3 -15 -4 -12 3 -14 36 -11 22 3 61 -2 86
-9 25 -8 50 -11 55 -8 6 3 7 1 4 -4 -8 -13 18 -37 31 -30 4 3 14 2 22 -4 13
-7 12 -9 -2 -9 -10 0 -18 -5 -18 -12 0 -6 3 -8 7 -5 9 9 34 -13 27 -24 -3 -5
1 -16 9 -24 9 -8 13 -25 10 -37 -3 -15 -2 -19 4 -11 6 8 12 1 19 -23 8 -24 8
-37 1 -41 -29 -18 -387 -25 -429 -8 -9 3 -19 21 -22 40 -4 19 -17 40 -31 49
-13 8 -31 28 -40 44 -10 15 -30 37 -46 48 -16 10 -32 27 -35 37 -3 10 -8 16
-11 13 -3 -2 -16 5 -30 18 -24 22 -242 107 -275 106 -22 0 -32 50 -24 124 l5
56 -288 0 -289 0 -4 -122z m1452 -192 c0 -2 -7 -6 -15 -10 -8 -3 -15 -1 -15 4
0 6 7 10 15 10 8 0 15 -2 15 -4z m-1550 -897 c0 -5 -4 -9 -8 -9 -9 0 -32 44
-32 58 1 10 40 -38 40 -49z m-230 -13 c-17 -17 -65 7 -68 32 l-4 24 41 -24
c25 -14 37 -26 31 -32z m163 -56 c-5 -17 -14 -20 -63 -20 -44 0 -61 4 -75 20
-18 20 -17 20 63 20 75 0 80 -1 75 -20z m78 -93 c-10 -9 -11 -8 -5 6 3 10 9
15 12 12 3 -3 0 -11 -7 -18z m23 -69 c2 -13 9 -52 16 -87 6 -36 21 -82 31
-104 29 -56 21 -68 -31 -53 -48 14 -65 36 -55 73 8 33 -7 43 -62 43 -25 0 -43
5 -43 11 0 8 14 10 44 6 l44 -6 7 62 c4 34 9 65 12 70 9 15 33 6 37 -15z m598
-60 c7 -7 14 -20 16 -28 14 -63 102 -155 182 -191 70 -32 53 -43 -100 -63
-114 -16 -170 -18 -312 -12 -114 4 -177 11 -184 19 -7 7 -14 32 -18 57 -3 25
-10 61 -16 80 -5 19 -10 49 -10 67 l0 32 117 -2 c109 -2 119 -1 144 20 14 13
36 26 48 31 33 12 119 6 133 -10z m-1929 -465 c-24 -3 -33 -9 -33 -22 0 -13
10 -20 33 -23 17 -3 246 -2 507 2 261 4 485 4 498 1 22 -6 22 -6 -7 -24 -16
-9 -37 -18 -47 -20 -11 -2 -28 -8 -39 -14 -11 -6 -38 -16 -60 -23 -22 -7 -55
-22 -74 -33 -20 -12 -36 -16 -40 -10 -4 6 -17 5 -36 -3 l-30 -13 28 -1 c15 0
27 -4 27 -9 0 -4 -29 -35 -65 -67 -35 -32 -62 -60 -60 -62 5 -6 -65 -145 -77
-153 -5 -3 -9 -9 -9 -13 0 -3 -4 -16 -9 -28 -5 -13 -9 -17 -9 -9 -1 8 -4 11
-7 8 -4 -4 -2 -13 5 -21 16 -19 -14 -96 -38 -97 -9 0 -11 -3 -4 -5 14 -6 4
-46 -26 -101 -11 -21 -22 -49 -25 -63 -9 -47 -44 -134 -55 -138 -6 -2 -9 -8
-6 -12 8 -13 -35 -143 -51 -156 -8 -6 -14 -25 -14 -41 0 -35 -18 -93 -29 -93
-4 0 -8 -16 -9 -35 -1 -20 -8 -50 -16 -68 -8 -18 -22 -61 -31 -96 -8 -36 -18
-67 -20 -70 -3 -2 -35 -8 -73 -11 -64 -7 -64 -7 -17 -9 28 -1 57 -6 65 -11 13
-9 12 -12 -4 -25 -24 -18 -85 -19 -108 -1 -13 10 -19 34 -24 97 -13 190 -72
1464 -67 1471 2 5 23 7 46 6 37 -1 38 -2 10 -5z m1112 -3 c3 -5 0 -10 -7 -10
-7 0 -25 -7 -40 -14 -25 -13 -28 -13 -28 0 0 12 -7 14 -32 9 -17 -4 -225 -3
-462 1 l-431 9 470 5 c259 3 482 6 497 8 15 1 30 -2 33 -8z m-1918 -1146 c-3
-3 -12 -4 -19 -1 -8 3 -5 6 6 6 11 1 17 -2 13 -5z"/>
<path d="M1098 1883 c2 -12 8 -23 12 -23 17 0 40 13 40 22 0 5 -5 6 -10 3 -6
-3 -13 0 -16 8 -9 24 -31 16 -26 -10z"/>
<path d="M1414 1897 c3 -10 6 -24 6 -30 0 -7 5 -4 11 6 6 10 15 14 22 10 20
-13 36 -12 31 2 -3 7 -17 12 -32 10 -15 -2 -31 2 -35 9 -6 7 -7 4 -3 -7z"/>
<path d="M1496 1901 c-3 -4 1 -17 10 -27 14 -18 15 -18 5 2 -6 12 -7 24 -4 28
3 3 4 6 0 6 -3 0 -8 -4 -11 -9z"/>
<path d="M1170 1881 c0 -14 6 -17 24 -14 14 3 27 12 31 22 5 13 4 14 -6 4 -15
-15 -43 -17 -34 -3 3 6 1 10 -4 10 -6 0 -11 -8 -11 -19z"/>
<path d="M1250 1883 c0 -7 -5 -13 -12 -13 -6 0 -9 -2 -6 -5 8 -8 43 8 45 21 1
6 -5 11 -13 11 -7 0 -14 -6 -14 -14z"/>
<path d="M1324 1880 c2 -21 55 -21 66 0 7 13 5 16 -12 15 -12 -1 -24 -7 -26
-13 -5 -16 -19 -15 -25 1 -2 7 -3 6 -3 -3z"/>
<path d="M1545 1880 c-3 -5 1 -10 10 -10 9 0 13 5 10 10 -3 6 -8 10 -10 10 -2
0 -7 -4 -10 -10z"/>
<path d="M1143 1843 c37 -2 96 -2 130 0 34 2 4 3 -68 3 -71 0 -99 -1 -62 -3z"/>
<path d="M911 744 c0 -11 3 -14 6 -6 3 7 2 16 -1 19 -3 4 -6 -2 -5 -13z"/>
<path d="M3305 3990 c3 -5 8 -10 11 -10 2 0 4 5 4 10 0 6 -5 10 -11 10 -5 0
-7 -4 -4 -10z"/>
</g>
</svg>
